<?xml version="1.0" encoding="UTF-8" standalone="no"?>

<svg width="1920" height="1080" viewBox="0 0 508 285" version="1.1" id="svg1069" xml:space="preserve" xmlns:xlink="http://www.w3.org/1999/xlink" xmlns="http://www.w3.org/2000/svg" xmlns:svg="http://www.w3.org/2000/svg">
  <defs id="defs1066">
  <linearGradient id="linearGradient3839">
    <stop style="stop-color:#d0caff;stop-opacity:1;" offset="0" id="stop3835" />
    <stop style="stop-color:#b6c9f8;stop-opacity:1;" offset="1" id="stop3837" /></linearGradient>
  <linearGradient id="linearGradient1865">
    <stop style="stop-color:#fc9a00;stop-opacity:1;" offset="0" id="stop1861" />
    <stop style="stop-color:#fc9a00;stop-opacity:0;" offset="1" id="stop1863" />
  </linearGradient>
  <radialGradient xlink:href="#linearGradient3839" id="radialGradient3841" cx="310" cy="121" fx="310" fy="121" r="109" gradientTransform="matrix(1,0,0,0.4083185,15.132223,71.284113)" gradientUnits="userSpaceOnUse" /></defs>
  <g id="layer1">
    <image width="90" height="90" preserveAspectRatio="none" style="image-rendering:optimizeQuality" xlink:href="npl-husai.png" id="image1210" x="85" y="75" />
    <path
    d="m 247.03707,165.03226 c -0.25535,-0.0395 -0.61052,-0.13637 -0.78928,-0.21535 -0.17875,-0.0789 -1.00845,-0.25573 -1.84377,-0.3927 -2.53702,-0.41601 -4.07311,-0.91643 -4.57724,-1.49113 -0.17117,-0.1951 -0.54101,-0.50072 -0.82191,-0.67915 -4.66655,-2.96437 -7.05618,-6.7474 -5.58884,-8.8477 1.03401,-1.48003 3.98077,-1.39816 6.40564,0.17797 0.54666,0.35532 1.26554,0.78201 1.59751,0.94818 0.33197,0.16619 1.4184,0.76383 2.4143,1.3281 2.38918,1.35372 5.81345,3.09012 6.22149,3.15483 0.17875,0.0284 0.55482,0.12034 0.83571,0.20447 2.15131,0.64426 8.36036,-0.20628 11.21824,-1.5367 2.12321,-0.98842 6.00516,-4.95385 7.81792,-7.98605 4.22089,-7.06028 4.63886,-12.18695 1.64997,-20.23734 -1.95475,-5.26491 -4.04145,-6.61585 -9.39766,-6.08412 -1.94382,0.19297 -2.26881,0.16847 -2.88553,-0.21753 -0.34804,-0.21784 -0.78635,-0.36002 -1.7425,-0.5653 -1.42725,-0.30643 -1.73101,-0.44664 -2.06678,-0.95402 -0.50108,-0.75719 -0.70588,-0.49568 -1.32786,1.69554 -0.98725,3.47808 -3.31673,7.71986 -8.17981,14.89466 -1.90455,2.80992 -1.87106,2.77121 -5.93764,6.86298 -5.05143,5.08276 -7.04825,6.88132 -8.36992,7.53887 -0.38305,0.19055 -1.32323,0.77512 -2.08932,1.299 -0.76606,0.5239 -1.97787,1.2647 -2.69288,1.64627 -0.715,0.38154 -1.90007,1.05344 -2.63347,1.4931 -1.39076,0.83374 -2.15243,1.17649 -2.61435,1.17649 -0.55254,0 -3.21546,-1.2014 -3.67801,-1.65937 -1.18252,-1.17078 -1.2575,-7.59588 -0.12753,-10.92287 0.15612,-0.45964 0.34284,-1.17197 0.41492,-1.58293 0.24422,-1.39218 1.33403,-4.57679 2.32148,-6.78383 2.63846,-5.89715 6.95378,-12.51104 15.98857,-24.50494 5.60342,-7.43867 5.95314,-7.88859 8.1922,-10.53938 1.9351,-2.290909 4.59045,-5.408231 4.9558,-5.81795 0.26802,-0.300583 -1.35882,-5.21638 -2.43963,-7.371779 -1.38439,-2.760801 -4.48223,-5.82472 -7.82548,-7.739749 -2.04092,-1.169049 -8.22082,-0.964423 -10.8831,0.360357 -2.85654,1.421455 -5.61543,4.408366 -7.84235,8.490502 -1.28258,2.351078 -1.71445,3.067789 -2.31759,3.846175 -0.42045,0.542603 -0.42045,0.542603 -0.15387,1.578582 0.57565,2.237035 1.20344,4.333433 1.59387,5.322482 0.5453,1.38132 0.46769,1.57784 -0.54779,1.38733 -0.98578,-0.18493 -2.51512,-3.814127 -3.04588,-7.228015 -0.56697,-3.646853 4.3978,-12.949425 8.31273,-15.575647 5.99116,-4.01902 14.50089,-4.078129 20.39031,-0.141635 6.39771,4.276239 7.27584,5.147245 9.69299,9.614259 0.99128,1.831958 0.72683,1.86632 3.65621,-0.47505 6.58387,-5.262316 10.34333,-7.091122 15.71532,-7.644789 13.58628,-1.400298 19.79424,4.960995 18.47784,18.934198 -0.27583,2.927929 -1.18421,5.160949 -3.04538,7.486389 -2.7215,3.40036 -6.39774,6.81852 -10.00813,9.30553 -1.10257,0.75951 -6.32328,3.28732 -7.14222,3.45818 -1.90888,0.3983 -2.03518,0.81744 -0.55067,1.82748 3.7575,2.55659 7.75125,9.45455 8.48066,14.64772 1.21703,8.66471 0.79294,10.76776 -3.2564,16.14845 -1.35989,1.80698 -1.01648,1.6848 3.06273,-1.08969 3.26486,-2.22059 4.55652,-3.26415 6.83933,-5.52563 0.71331,-0.70666 1.41819,-1.34753 1.56639,-1.42418 0.14819,-0.0766 1.39629,-0.88912 2.77351,-1.80551 2.12704,-1.41531 3.61453,-2.31055 3.83914,-2.31055 0.52424,0 -1.83419,2.28892 -7.76067,7.53194 -4.00054,3.5392 -5.39172,4.96464 -7.33045,7.51105 -1.57175,2.06439 -4.27272,3.93652 -9.76658,6.76954 -4.316,2.22561 -6.10181,2.53216 -15.44712,2.65165 -2.24716,0.0288 -4.7961,0.0699 -5.66433,0.0911 -0.86821,0.0213 -1.78752,0.007 -2.04288,-0.0328 z m -4.51158,-4.70425 c 0.18334,-0.17178 0.0264,-0.34072 -0.65263,-0.70264 -0.37585,-0.20035 -0.92266,-0.67294 -1.77522,-1.5343 -2.97105,-3.00172 -5.05845,-4.64818 -5.42645,-4.28018 -0.99533,0.99532 0.35669,3.8591 2.46614,5.2237 1.79593,1.16177 4.7674,1.87507 5.38816,1.29342 z m -21.30291,-5.84142 c 1.43874,-0.93923 7.50727,-6.87593 10.52247,-10.29388 0.32267,-0.36579 0.66057,-0.69251 0.75089,-0.72608 0.70273,-0.26118 9.18828,-12.13733 10.4111,-14.57112 0.16486,-0.32811 0.52411,-0.91603 0.79836,-1.30649 2.9981,-4.26866 6.1983,-15.74902 6.32501,-22.69025 0.0424,-2.32145 0.0424,-2.32145 -0.30223,-1.99644 -2.24714,2.11928 -9.20264,9.6266 -11.78648,12.72154 -1.32239,1.58395 -2.76773,3.23877 -4.13627,4.73574 -2.44095,2.67003 -4.08723,4.93492 -5.20788,7.16481 -0.21409,0.42599 -1.06644,1.92366 -1.89412,3.32813 -1.64243,2.78701 -2.2357,3.8532 -3.66855,6.59292 -1.03527,1.97952 -1.07482,2.04415 -0.98004,1.6018 0.28835,-1.34593 -1.02017,1.22975 -1.94305,3.82467 -2.30463,6.48005 -2.34812,10.93793 -0.11609,11.8916 0.37904,0.16195 0.64727,0.10148 1.22684,-0.27695 z m 34.86495,-34.53278 c 0.62749,-0.60477 0.7919,-0.62668 5.11038,-0.68113 3.76075,-0.0474 3.76075,-0.0474 5.71077,-1.16295 13.48884,-7.71632 19.52683,-18.246509 16.46697,-28.718228 -0.8381,-2.868234 -1.7222,-3.389321 -5.75051,-3.389321 -3.47733,0 -8.71984,1.791319 -11.90761,4.068732 -0.60834,0.434612 -1.06492,0.688507 -1.36951,0.761577 -1.11124,0.266581 -3.0728,1.734817 -6.29547,4.712141 -0.68464,0.63251 -0.68464,0.63251 -0.48279,2.105122 0.27768,2.025938 0.34283,3.207227 0.19234,3.488387 -0.0789,0.14761 -0.14471,0.93886 -0.19627,2.36272 -0.20183,5.57492 -0.83121,10.50266 -1.83538,14.37012 -0.60481,2.32935 -0.50468,2.9134 0.35708,2.08283 z m 119.28968,42.18134 c -1.43214,-0.33616 -3.49123,-1.34998 -3.91749,-1.92879 -1.36524,-1.85389 -1.89345,-3.89798 -1.89841,-7.34648 -0.003,-2.25773 0.0697,-2.23053 -1.28865,-0.48039 -1.08122,1.39308 -1.79908,1.97285 -4.15126,3.35275 -1.16944,0.68605 -2.58588,1.56031 -3.14766,1.94281 -5.75267,3.91675 -10.67078,3.69172 -15.18787,-0.69496 -0.70318,-0.68288 -1.31697,-1.24161 -1.36396,-1.24161 -0.0469,0 -0.161,-0.67903 -0.25334,-1.50895 -0.24495,-2.2016 -0.26767,-2.23401 -0.9446,-1.34644 -2.74239,3.59573 -8.46222,6.05881 -11.41911,4.91733 -1.88583,-0.728 -4.27853,-4.60773 -4.37842,-7.09949 -0.0294,-0.7319 -0.0787,-1.09107 -0.15002,-1.09107 -0.30799,0 -1.27647,0.81718 -4.51372,3.80863 -7.2696,6.71763 -9.72692,7.87476 -13.10219,6.1697 -3.24651,-1.63999 -3.5651,-4.77558 -1.37518,-13.53416 0.83848,-3.35351 3.66171,-9.74961 5.5966,-12.67929 0.357,-0.54052 0.78311,-1.30541 0.94694,-1.69975 0.32212,-0.77532 0.38159,-0.86988 1.42278,-2.26173 2.06176,-2.75623 4.14335,-4.80178 6.01183,-5.90779 0.6576,-0.38925 1.75193,-1.03516 2.43181,-1.43534 0.67989,-0.40018 1.40502,-0.87214 1.61139,-1.04879 1.07558,-0.92065 5.52522,0.93074 5.99761,2.49545 0.29874,0.98951 0.59698,2.21519 0.77134,3.17005 0.43306,2.37177 0.83431,2.22832 1.99326,-0.7126 0.42037,-1.06674 1.10431,-2.52888 1.79258,-3.83222 0.61208,-1.15908 1.77909,-3.44457 2.59335,-5.07887 1.56144,-3.13395 2.05569,-4.01978 3.70577,-6.6419 2.05417,-3.26424 3.44851,-5.71862 4.90452,-8.63323 1.30074,-2.603755 6.27598,-10.420638 7.97875,-12.535799 0.69017,-0.857336 3.73585,-4.062815 4.29781,-4.523278 0.43363,-0.355344 1.0384,-0.319413 2.17434,0.129121 1.55501,0.614053 0.17927,5.307329 -2.44448,8.339213 -1.31319,1.517452 -2.16236,2.922617 -4.57431,7.569283 -1.38185,2.66214 -2.16077,4.03093 -2.87985,5.06077 -0.21398,0.30642 -0.6627,1.07947 -0.99718,1.71787 -0.33447,0.63839 -1.8188,3.47985 -3.29847,6.31432 -1.4797,2.8345 -2.81407,5.36256 -2.96529,5.61792 -1.56897,2.64942 -4.07459,7.31925 -4.30003,8.01416 -0.69838,2.15247 -2.88426,6.50389 -4.05314,8.06849 -1.58891,2.12687 -2.01548,2.89048 -2.42771,4.34608 -0.10118,0.3575 -0.41627,1.25591 -0.70004,1.99646 -1.78127,4.64841 -1.94356,11.49403 -0.26106,11.0124 0.0835,-0.024 0.71602,-0.15365 1.4055,-0.28828 5.47894,-1.06984 8.97672,-2.59144 8.53607,-3.71335 -0.46118,-1.1742 0.65024,-7.15847 1.86429,-10.03794 1.81322,-4.30057 4.2102,-8.01959 7.05,-10.93833 4.22692,-4.34445 4.49414,-4.53389 9.24834,-6.55698 4.48282,-1.90761 4.95406,-1.96879 6.6094,-0.85818 0.29623,0.19874 0.78533,0.45992 1.08692,0.5804 1.11144,0.444 2.87877,1.93797 3.21377,2.71666 1.05317,2.44815 -2.99838,9.0938 -8.73994,14.3359 -4.12911,3.76991 -9.38788,7.99337 -12.76497,10.25188 -2.12171,1.41896 -2.37348,1.93577 -1.76231,3.61732 0.55149,1.51734 3.09815,2.76436 4.95025,2.42397 3.35577,-0.61674 15.31162,-7.35071 15.76102,-8.87721 0.71108,-2.41535 2.27991,-5.98182 5.77993,-13.13978 4.52001,-9.24388 9.71696,-16.9992 17.96507,-26.80897 4.21544,-5.01355 6.17207,-7.019268 7.03841,-7.215031 0.12766,-0.02886 0.56643,-0.349287 0.975,-0.712091 1.88481,-1.673674 4.6608,-2.988679 5.47602,-2.594054 1.50992,0.730953 1.47105,3.398188 -0.0887,6.084126 -0.72257,1.2443 -0.93884,1.71768 -1.07512,2.35309 -0.0566,0.26383 -0.13556,0.4595 -0.17549,0.43482 -0.27614,-0.17068 -1.58614,2.55848 -1.85609,3.86686 -0.10077,0.48849 -0.30975,0.82504 -0.43468,0.70013 -0.17607,-0.17608 0.54805,-2.39623 1.38449,-4.24482 0.81327,-1.79743 0.98958,-2.35847 1.138,-3.62146 0.0691,-0.58732 0.23208,-1.506611 0.36234,-2.04287 0.35731,-1.470939 0.26543,-1.933609 -0.30113,-1.516431 -0.38458,0.283151 -1.00368,1.218824 -0.885,1.337508 0.15456,0.154556 -0.35309,1.286624 -0.87906,1.960233 -0.2519,0.32261 -0.93115,1.27602 -1.50945,2.11872 -1.8754,2.73276 -3.06668,4.29791 -4.62943,6.0822 -0.31311,0.3575 -0.88686,1.12346 -1.275,1.70214 -0.82405,1.22856 -2.05553,2.92124 -5.38226,7.39792 -5.80193,7.80751 -6.65593,9.13188 -9.58045,14.85726 -3.07608,6.02208 -3.0729,5.99381 -0.31936,2.8554 1.01939,-1.1619 2.64217,-2.94975 3.60612,-3.97301 2.59026,-2.74962 3.71599,-3.98197 5.56582,-6.09302 2.86992,-3.27515 4.04129,-4.77846 7.09097,-9.10032 1.94108,-2.7508 2.65414,-3.27254 1.77705,-1.30023 -0.19665,0.44214 -0.55491,1.27625 -0.79618,1.85355 -0.48392,1.15791 -0.70413,1.48601 -4.03183,6.00755 -1.09002,1.4811 -2.19414,2.98539 -2.45357,3.34289 -0.25944,0.3575 -0.73943,0.94252 -1.06664,1.30002 -1.21577,1.32824 -2.32133,3.14555 -3.58719,5.89647 -0.41126,0.89376 -0.82099,1.72949 -0.9105,1.85716 -0.5592,0.79767 -7.32347,7.49949 -9.58314,9.49468 -1.7631,1.55672 -2.00112,1.90038 -2.32465,3.35634 -0.32935,1.48208 -0.0412,4.91522 0.50176,5.97967 1.53348,3.00582 12.54913,-3.5416 19.09129,-11.34738 0.82626,-0.98586 1.45996,-1.5986 2.14901,-2.07802 0.36425,-0.25341 1.55207,-2.48015 1.39032,-2.60637 -0.0565,-0.0441 -0.68764,-0.27885 -1.40263,-0.52179 -3.06301,-1.04067 -3.34321,-1.34834 -3.34229,-3.66999 10e-4,-3.19098 1.06617,-5.29549 3.13772,-6.20083 0.96346,-0.42108 2.54561,0.30727 3.54745,1.63309 1.1903,1.57524 2.041,1.47804 7.70719,-0.8808 3.60943,-1.50262 3.76828,-1.67446 2.08932,-2.26024 -2.14996,-0.7501 -2.98943,-1.38509 -3.31243,-2.50559 -0.20441,-0.70905 -0.6536,-1.60663 -1.01587,-2.02987 -0.72386,-0.84566 -0.34777,-0.8909 3.02829,-0.3643 5.01851,0.78281 6.7813,0.12513 10.63255,-3.96661 1.92536,-2.04561 2.55127,-2.8035 3.99257,-4.83436 1.62186,-2.2853 3.27165,-3.47882 3.95858,-2.86376 1.46678,1.31331 2.25271,3.8069 1.57759,5.00525 -1.90992,3.39006 -3.62306,5.88564 -4.99823,7.28106 -1.24293,1.26122 -1.18649,1.18865 -1.0511,1.35178 0.0972,0.11702 0.31453,0.13059 1.33603,0.0833 1.11155,-0.0514 1.26952,-0.0382 1.77715,0.14923 0.30642,0.11317 1.01679,0.28366 1.57857,0.37891 4.42671,0.75056 6.36053,1.40071 6.50824,2.18807 0.0363,0.1939 0.15062,0.38347 0.28363,0.47063 0.22274,0.14595 0.22274,0.14595 0.003,0.43579 -0.37524,0.49372 -0.54563,0.89701 -0.48354,1.14445 0.45035,1.79431 -1.2653,1.81042 -11.8263,0.11104 -3.64335,-0.58626 -3.16898,-0.94717 -7.80112,5.93508 -3.08176,4.57874 -3.74759,5.71751 -6.14513,10.51017 -3.38612,6.76887 -3.74472,8.59044 -1.86089,9.4529 2.05839,0.94235 7.33738,-0.91579 11.63848,-4.0966 1.66515,-1.23145 8.66713,-7.63624 9.83564,-8.9968 0.27421,-0.31926 1.01136,-1.12461 1.63812,-1.78965 0.81933,-0.86939 1.21593,-1.36951 1.41131,-1.7797 0.29843,-0.62649 1.34479,-1.79737 1.60626,-1.79737 0.23957,0 0.20279,0.24522 -0.21067,1.40427 -0.5052,1.41621 -0.49561,1.59566 0.12434,2.32798 0.91944,1.08606 0.88292,1.50868 -0.30718,3.55423 -0.14765,0.25379 -0.29576,0.60704 -0.32915,0.78498 -0.2082,1.10975 -2.01783,3.32667 -4.37302,5.3573 -4.87212,4.20067 -6.33563,5.4154 -7.27942,6.04196 -0.58732,0.38992 -1.80628,1.20171 -2.70879,1.80398 -4.46704,2.981 -10.12335,4.90861 -11.93949,4.06886 -0.66018,-0.30525 -1.48915,-0.63586 -1.84216,-0.73469 -1.30435,-0.36514 -3.57679,-3.39629 -3.85117,-5.13693 -0.50567,-3.20808 0.76898,-10.04053 2.47927,-13.28944 1.41658,-2.69098 2.78976,-5.59306 2.69249,-5.69033 -0.27168,-0.27168 -3.12315,1.13257 -3.12315,1.53806 0,0.20546 0.46801,0.66265 0.6783,0.66265 0.22563,0 0.2034,0.17261 -0.22201,1.72563 -0.78762,2.87526 -1.10854,3.4745 -2.78074,5.19228 -0.64631,0.66395 -1.42162,1.54146 -1.72291,1.95003 -1.91624,2.59858 -7.89504,9.2133 -8.69766,9.62278 -0.20373,0.10385 -1.21151,0.80402 -2.23954,1.55576 -1.02803,0.75174 -2.07807,1.51707 -2.33343,1.70073 -0.65354,0.47003 -4.30048,1.73747 -5.84988,2.03304 -0.97921,0.1868 -2.42373,0.22166 -3.05398,0.0736 z m -62.71225,-8.06294 c 3.91906,-2.13591 10.70787,-8.36104 15.29979,-14.02948 1.92769,-2.3796 2.02547,-2.71101 1.08696,-3.68416 -0.49997,-0.51843 -0.53156,-0.92601 -0.21445,-2.7667 1.14482,-6.64515 0.0645,-9.82756 -2.93672,-8.65055 -4.72106,1.85155 -5.54393,2.7482 -9.03462,9.84467 -3.95371,8.03777 -4.75673,10.15512 -5.39681,14.2296 -0.41172,2.62081 -0.43557,5.70145 -0.0442,5.70145 0.0312,0 0.58926,-0.29017 1.24,-0.64483 z m 37.45702,-10.0295 c 2.19422,-1.47929 11.05516,-9.81208 13.97687,-13.14372 2.35366,-2.68393 3.6859,-4.74849 3.69798,-5.73072 0.007,-0.57509 -1.90291,-0.41608 -4.22647,0.35185 -5.26976,1.74164 -7.92372,4.60753 -12.16775,13.13938 -2.40887,4.84263 -2.77755,6.39242 -1.28063,5.38321 z M 397.9837,131.4993 c 0.45815,-0.24519 0.0866,-0.69443 -0.69353,-0.83864 -1.1924,-0.22044 -2.27752,0.40927 -1.41967,0.82385 0.26481,0.12792 1.88062,0.13926 2.1132,0.0148 z m -106.10732,2.55533 c -2.59255,-0.60249 -3.13331,-1.01442 -3.2605,-2.48375 -0.0275,-0.31848 -0.10505,-0.68789 -0.17221,-0.82094 -0.12208,-0.24192 -0.12208,-0.24192 2.54298,-0.30394 1.4658,-0.0342 3.83511,-0.1238 5.26512,-0.19916 3.76258,-0.19844 8.34727,-0.34045 9.10006,-0.28184 0.63185,0.0492 3.00511,0.46056 3.04964,0.52864 0.0119,0.0186 0.13829,0.19158 0.28018,0.38429 1.69614,2.30366 -0.36638,3.80059 -4.19204,3.04248 -1.22276,-0.2423 -1.32025,-0.24092 -6.28782,0.0894 -4.92388,0.32733 -5.10456,0.3286 -6.32541,0.045 z"
    style="fill:#1a0000;fill-opacity:1;stroke:url(#radialGradient3841);stroke-width:0.7;stroke-linecap:round;stroke-linejoin:round;stroke-dasharray:none;stroke-dashoffset:0;stroke-opacity:1;paint-order:normal"
    id="path1224" />
    <path
    d="m 320.61691,182.81088 c -0.42249,-0.0123 -0.79717,0.46056 -0.61173,0.87612 0.17922,0.40162 0.11321,0.92004 -0.32978,2.59671 -0.10247,0.38787 -0.29692,1.29714 -0.43244,2.02015 -0.25873,1.37982 -1.39542,4.82286 -2.61569,7.92443 -0.39734,1.00989 -0.86932,2.37343 -1.04909,3.02985 -0.17978,0.65643 -0.39222,1.2758 -0.47181,1.37676 -0.0796,0.10095 -0.22976,0.47273 -0.334,0.82619 -0.10422,0.35346 -0.40716,1.2211 -0.67291,1.92803 -0.71365,1.89836 -0.71239,1.89016 -0.38673,2.38717 0.16555,0.25265 0.3794,0.45916 0.47532,0.45916 0.17037,0 3.13208,-0.76006 4.40802,-1.13136 0.82489,-0.24005 2.28714,-0.4655 4.09371,-0.63002 1.2214,-0.11143 1.48424,-0.19747 1.7902,-0.58643 0.9409,-1.19608 -0.0947,-1.91463 -1.88723,-1.30925 -0.63297,0.21376 -1.72948,0.45703 -2.4364,0.54072 -0.70692,0.0837 -1.9223,0.29841 -2.70149,0.47743 -1.6959,0.38966 -1.74625,0.35675 -1.33385,-0.88667 0.30432,-0.91758 0.34994,-1.07223 0.44859,-1.5237 0.0221,-0.10096 0.14978,-0.39022 0.28408,-0.64269 0.23182,-0.43596 0.65708,-1.6424 1.00339,-2.84632 0.1716,-0.5966 0.85293,-2.52724 1.10182,-3.12126 0.88588,-2.1141 1.99828,-5.83427 2.14109,-7.16082 0.0434,-0.40395 0.12545,-0.85893 0.18211,-1.01041 0.0566,-0.15149 0.20778,-0.91793 0.3361,-1.70303 0.23201,-1.41891 0.19024,-1.6165 -0.36001,-1.71637 -0.10097,-0.0183 -0.30768,-0.0804 -0.45916,-0.13783 -0.0608,-0.023 -0.12178,-0.0348 -0.18211,-0.0366 z m -103.54015,0.2665 c -1.89115,0.0743 -3.82369,1.40396 -2.47154,1.1173 2.37735,-0.57033 3.87177,1.06041 3.55088,3.87432 -0.37999,3.33142 -2.57822,5.92118 -6.33323,7.45966 -2.47074,1.0123 -2.68521,0.69082 -1.37324,-2.05459 0.0965,-0.20198 0.30925,-0.86294 0.47321,-1.46887 0.43932,-1.62355 0.73902,-2.65295 1.04277,-3.5804 0.14884,-0.45445 0.35871,-1.19865 0.46619,-1.6531 0.40087,-1.69498 0.40221,-1.96793 0.0123,-2.46311 -0.66499,-0.8454 -1.02618,-0.53486 -1.3831,1.18972 -0.15404,0.74426 -0.40161,1.58865 -0.55056,1.87669 -0.14894,0.28802 -0.2944,0.78687 -0.32274,1.10815 -0.0283,0.3213 -0.14672,0.81682 -0.26368,1.10112 -0.11702,0.2843 -0.21305,0.5542 -0.21305,0.59978 0,0.23764 -1.77363,4.95704 -2.32952,6.19893 -0.35458,0.79213 -0.67337,1.61886 -0.70877,1.83662 -0.091,0.55978 -1.0311,4.17741 -1.20026,4.61895 -0.0774,0.20197 -0.18133,0.57373 -0.23134,0.8262 -0.05,0.25247 -0.23178,0.95505 -0.4036,1.56098 -0.36031,1.27053 -0.38372,2.02574 -0.0739,2.39913 0.63908,0.77003 1.20818,0.17862 1.64044,-1.70653 0.48167,-2.10049 1.44583,-5.60794 1.6313,-5.93314 0.0886,-0.15536 0.22003,-0.63017 0.2918,-1.05471 0.0718,-0.42479 0.20594,-0.8191 0.29813,-0.87612 0.0923,-0.057 0.16735,-0.26385 0.16735,-0.45986 0,-0.3783 0.26948,-0.47987 0.45916,-0.17297 0.26172,0.42348 1.54797,0.16614 4.03956,-0.80932 2.06555,-0.80867 3.95007,-2.53279 5.21382,-4.76943 2.63963,-6.89026 0.94365,-8.64959 -1.0519,-8.76259 -0.12477,-0.007 -0.25081,-0.008 -0.37689,-0.003 z m -77.1272,0.95275 c -0.0675,-0.01 -0.1583,0.004 -0.27001,0.0471 -0.15055,0.0578 -0.36401,0.43908 -0.47392,0.84728 -0.18855,0.70023 -0.37503,0.96344 -1.63481,2.30631 -0.28423,0.30296 -0.66048,1.00555 -0.83604,1.56098 -0.17557,0.55544 -0.52746,1.28482 -0.7819,1.62075 -0.25444,0.33593 -0.73547,1.2861 -1.06948,2.11155 -0.33403,0.82519 -0.73795,1.7488 -0.89721,2.05176 -0.15927,0.30299 -0.28978,0.72777 -0.2904,0.94434 -0.002,0.51418 -1.98721,5.49283 -2.83227,7.10175 -0.3619,0.68902 -0.65814,1.34173 -0.65814,1.45059 0,0.10885 -0.20983,0.62842 -0.46689,1.15386 -0.52166,1.06623 -0.39548,1.80338 0.34946,2.03983 0.38633,0.12259 1.40278,-0.8374 1.40278,-1.32474 0,-0.22277 0.6668,-1.77854 1.7227,-4.02127 0.82539,-1.75307 1.9045,-4.53829 2.31475,-5.97392 0.68289,-2.38952 2.25625,-5.76048 2.63047,-5.63571 0.37771,0.12587 1.13056,2.96842 1.76208,6.65246 0.32389,1.88939 0.40043,2.53133 0.66658,5.59984 0.0569,0.65643 0.145,1.33437 0.19547,1.50614 0.0505,0.17177 -0.11918,0.77329 -0.37688,1.33667 -0.53918,1.17877 -0.58892,1.7849 -0.18001,2.19381 0.64836,0.64838 1.33726,0.19908 1.82466,-1.18972 0.40877,-1.1647 0.66628,-1.76346 1.21433,-2.82312 0.265,-0.51235 0.75213,-1.46918 1.08214,-2.12561 0.32998,-0.65642 0.6704,-1.31738 0.75658,-1.46887 0.0862,-0.15148 0.2903,-0.58599 0.45353,-0.96542 0.16323,-0.37944 0.45268,-0.99564 0.64338,-1.36973 0.19072,-0.37385 0.34665,-0.74064 0.34665,-0.81493 0,-0.0743 0.27854,-0.73909 0.61877,-1.47661 0.34022,-0.73752 0.71242,-1.54758 0.82689,-1.80005 0.11448,-0.25247 0.62107,-1.24198 1.12574,-2.19944 0.50469,-0.9572 0.9176,-1.79656 0.9176,-1.86473 0,-0.0682 0.41336,-0.82611 0.91831,-1.68404 1.1216,-1.90544 1.19503,-2.51443 0.30376,-2.51443 -0.70296,0 -0.95221,0.23802 -1.68333,1.60667 -0.2832,0.5302 -0.57491,0.96402 -0.6476,0.96402 -0.0727,0 -0.2312,0.26876 -0.35298,0.59697 -0.12177,0.32822 -0.49956,1.17538 -0.83885,1.88232 -0.69726,1.45277 -3.07457,6.45928 -3.53119,7.43646 -0.16514,0.35345 -0.43576,0.80773 -0.60189,1.00971 -0.16613,0.20198 -0.49118,0.88546 -0.72213,1.51878 -0.60571,1.66111 -0.65422,1.60071 -1.10112,-1.38378 -0.89133,-5.95259 -1.21638,-7.6823 -1.50825,-8.02148 -0.0826,-0.0959 -0.14977,-0.31786 -0.14977,-0.4936 0,-0.17575 -0.24992,-0.79988 -0.55548,-1.3866 -0.59222,-1.13718 -0.573,-1.25125 0.58853,-3.43275 0.62901,-0.64674 0.72566,-0.97755 -0.20461,-1.56943 z m 25.38562,0.72214 c -0.50634,0 -0.62135,0.0804 -0.72002,0.50486 -0.16802,0.72261 -0.83797,2.85815 -0.96472,3.07554 -0.13765,0.23605 -0.87645,2.30232 -1.24738,3.48901 -0.15784,0.50495 -0.62617,1.99193 -1.04135,3.30479 -0.33517,1.17996 -0.58441,2.49777 -1.22699,3.4011 0,0.1828 -0.15131,0.69098 -0.3368,1.12856 -0.18549,0.43757 -0.43631,1.19566 -0.5576,1.68472 -0.12129,0.48908 -0.34209,1.07354 -0.49009,1.29941 -0.14799,0.22587 -0.39735,0.84271 -0.55408,1.37044 -0.15671,0.52773 -0.45402,1.12904 -0.66096,1.33597 -0.39746,0.39749 -0.37235,1.23094 0.0527,1.7431 0.43144,0.51987 1.33626,0.15477 1.53005,-0.61736 0.07,-0.27881 0.31565,-0.92085 0.54564,-1.42739 0.23,-0.50653 0.51626,-1.22128 0.63564,-1.58771 0.47846,-1.46872 2.49737,-1.49659 3.44681,-0.0471 0.73686,0.64315 1.44618,1.24296 1.98709,2.08763 0.98424,1.55916 2.66479,0.75379 1.96318,-0.94081 -0.0687,-0.16579 -0.78615,-0.83949 -1.59403,-1.49699 -2.92137,-2.37754 -2.82133,-2.26275 -2.29506,-2.63609 0.25248,-0.17912 1.07849,-0.92007 1.83591,-1.64676 0.75739,-0.72669 1.72312,-1.59777 2.14528,-1.93505 0.96935,-0.77502 1.33472,-1.5278 0.93589,-1.92662 -0.41989,-0.41989 -1.50866,-0.0468 -2.32811,0.79807 -1.68938,1.74179 -4.4874,4.27864 -4.7195,4.27864 -0.31985,0 -0.31871,-0.08 0.006,-0.79808 0.14409,-0.31823 0.59603,-1.61139 1.0041,-2.87374 1.97608,-6.11333 3.02516,-9.19289 3.42009,-10.03528 0.49045,-1.0464 0.24598,-1.53286 -0.77135,-1.53286 z m 8.27389,8.99744 c -0.37057,0 -0.44983,0.17684 -0.80791,1.79021 -0.54263,2.44496 -1.46126,5.87337 -2.02927,7.57426 -0.39846,1.19315 -0.39693,2.46326 0.006,2.89134 0.69315,0.73794 1.39433,0.11388 1.65238,-1.47168 0.25066,-1.54021 1.22795,-4.1787 1.74943,-4.72303 0.25341,-0.26451 0.46056,-0.56394 0.46056,-0.66518 0,-0.10123 0.35131,-0.44302 0.78049,-0.75939 0.4292,-0.31635 1.00748,-0.75242 1.28465,-0.96822 0.90237,-0.7034 1.16515,1.54793 0.4254,3.64438 -0.38367,1.08745 -0.90843,3.98927 -0.78119,4.32083 0.33047,0.86119 1.59613,0.41751 1.59613,-0.5597 0,-0.65135 0.78748,-3.80145 1.03222,-4.12886 0.67945,-2.75126 0.17094,-3.20698 0.012,-4.37426 -0.0669,-0.49053 -1.05564,-1.28536 -1.59895,-1.28536 -0.31391,0 -2.25947,1.59896 -3.09032,2.54047 -0.43124,0.48861 -0.43107,0.48934 -0.30727,-0.0577 0.0681,-0.30048 0.2081,-1.00235 0.31079,-1.56028 0.10268,-0.55794 0.26604,-1.11084 0.36282,-1.2284 0.23639,-0.28702 -0.51206,-0.97947 -1.05823,-0.97947 z m 22.16312,0.28336 c -0.52783,-0.0172 -1.1173,0.15587 -1.1173,0.45002 0,0.0925 -0.32928,0.52339 -0.73197,0.95698 -0.40271,0.43359 -0.7335,0.89142 -0.73479,1.01744 -0.003,0.32939 0.66406,0.2817 1.22629,-0.0857 0.26452,-0.17333 0.61233,-0.31796 0.77345,-0.32204 1.09361,-0.0267 1.88437,-1.07794 1.32754,-1.7656 -0.13157,-0.16242 -0.42652,-0.24076 -0.74322,-0.25103 z m 137.98015,0.0492 c -0.34455,-0.006 -0.71842,0.15574 -0.95838,0.5393 -0.17374,0.27771 -0.33315,0.53198 -0.35437,0.56464 -0.0212,0.0327 -0.28964,-0.071 -0.59698,-0.22994 -2.96665,-1.53411 -7.32461,6.74834 -4.81584,9.15214 0.8843,0.84719 3.13674,-0.0708 3.13674,-1.27832 0,-0.90463 0.4835,-0.82406 0.63634,0.10545 0.23081,1.40455 0.32859,1.6575 0.77978,2.0124 0.57984,0.45609 0.54265,0.45653 1.28605,-0.0436 0.78045,-0.52562 0.83123,-1.65343 0.0773,-1.75997 -0.84327,-0.11933 0.13606,-6.70208 1.08424,-7.28809 0.0981,-0.0607 0.3014,-0.34763 0.45142,-0.63774 0.34132,-0.66004 -0.1521,-1.12806 -0.72636,-1.13629 z m -181.83316,0.45493 c -0.65615,0.0434 -0.91072,0.40222 -1.77403,1.73677 -3.29332,5.09104 -3.21188,8.05507 0.25805,9.38135 1.30228,0.49779 4.42776,0.44165 5.26937,-0.0935 1.35132,-0.86043 0.59432,-1.97344 -0.97878,-1.43934 -0.95083,0.32277 -1.67196,0.34575 -2.99328,0.0957 -2.08992,-0.39635 -3.25127,-2.75703 -1.35637,-2.75703 2.12297,0 5.54543,-2.88835 5.56117,-4.69348 0.0112,-1.28011 -1.02657,-2.00078 -3.15853,-2.19312 -0.34545,-0.0312 -0.6089,-0.0517 -0.8276,-0.0373 z m 231.30036,0.19407 c 0,0.41977 -0.85688,0.17206 -1.15105,0.49712 -0.17761,0.19627 -0.38196,0.3572 -0.45353,0.3572 -0.33176,0 -1.97264,1.87349 -2.38366,2.72187 -0.25247,0.52111 -0.5826,0.98847 -0.73407,1.03854 -0.25562,0.0844 -0.38359,1.04727 -0.40292,3.03337 -0.0155,1.59831 0.63408,2.67603 1.68826,2.80203 0.35345,0.0422 0.71307,0.0899 0.79947,0.10614 0.25956,0.0486 2.39794,-0.54099 2.6164,-0.72143 0.11158,-0.0921 0.60509,-0.38155 1.09621,-0.64267 2.58886,-1.11354 6.34057,-6.72883 4.44176,-4.99726 -0.6828,0.64631 -1.79392,1.51719 -2.0356,1.59474 -0.11879,0.0381 -0.38164,0.21735 -0.58362,0.39868 -0.35787,0.32127 -2.05201,1.27017 -3.80893,2.13333 -1.24369,0.61103 -2.20558,0.58059 -2.44694,-0.0766 -0.30846,-0.84066 -0.15148,-1.09761 0.6715,-1.09761 1.19149,0 3.12946,-2.82257 3.41869,-4.97897 0.057,-0.42494 0.17492,-0.81647 0.26228,-0.87049 0.31382,-0.19394 0.15032,-0.80816 -0.29251,-1.09831 -0.20426,-0.13389 -0.70174,-0.45154 -0.70174,-0.1997 z m -34.25606,0.10123 c -0.41304,0.01 -0.87403,0.0965 -1.21433,0.25807 -0.94655,0.44891 -2.71273,2.60342 -2.71273,3.30899 0,0.13797 -0.14052,0.53239 -0.31219,0.87612 -1.65724,3.31312 1.45173,5.93201 3.45947,2.91383 0.51808,-0.7789 0.54307,-0.29997 0.0823,1.52019 -1.29785,5.11632 -7.66711,8.52434 -10.31233,5.51758 -0.45459,-0.51674 -0.8327,-0.79844 -0.964,-0.71721 -0.32814,0.20283 -0.25763,1.16122 0.10545,1.43863 0.67164,0.51283 1.18127,0.83796 0.95417,1.0484 0.0905,0.0415 0.18071,0.0833 0.27071,0.12586 0.24311,0.12151 0.48623,0.24302 0.72916,0.36493 0.0611,0.0305 0.12151,0.0623 0.18142,0.095 1.06726,-0.004 2.00288,0.008 3.03687,0.01 0.25917,-0.12355 0.52122,-0.24095 0.78964,-0.34314 2.03389,-0.593 4.30714,-1.96083 5.49367,-3.76604 0.73808,-1.20012 1.26017,-2.29827 1.26425,-2.66351 0.006,-0.38329 0.91266,-4.10254 1.43792,-5.89025 0.87202,-2.96788 0.74487,-3.71049 -0.63705,-3.71049 -0.30149,0 -0.62662,-0.0789 -0.72283,-0.17508 -0.15087,-0.15087 -0.51652,-0.21996 -0.92955,-0.21095 z m -130.33417,0.0289 c -0.37771,0.0123 -0.49315,0.48235 -0.85292,2.74718 -0.37628,2.3688 -0.74396,4.00778 -1.10394,4.91709 -0.35643,0.90035 -0.20842,2.39097 0.24611,2.47859 0.22723,0.0439 0.43007,0.0904 0.45072,0.10409 0.19156,0.1275 0.93037,-1.00802 1.11941,-1.7206 0.7703,-2.90349 4.12218,-5.47582 5.53022,-4.24348 0.38234,0.33503 1.1166,0.55246 1.1166,0.33119 0,-0.0961 0.16122,-0.21704 0.3586,-0.26861 0.19828,-0.0518 0.41588,-0.32227 0.48657,-0.604 0.42573,-1.69625 -3.35002,-1.88801 -5.67508,-0.28828 -0.94292,0.64875 -1.29892,0.72684 -1.16019,0.25453 0.052,-0.17672 0.15105,-0.65147 0.22009,-1.05542 0.069,-0.40373 0.2065,-0.83613 0.30517,-0.9605 0.23838,-0.30033 -0.4243,-1.58802 -0.86136,-1.67347 -0.0661,-0.0136 -0.12599,-0.0201 -0.18,-0.0183 z m 25.9179,0.0386 c -0.36027,-0.0109 -0.66947,0.41928 -0.67712,1.16722 -0.003,0.31552 -0.1215,0.90034 -0.26228,1.29941 -0.14079,0.39906 -0.30504,1.09124 -0.36563,1.53778 -0.0605,0.4468 -0.31789,1.62866 -0.57096,2.62625 -0.50788,2.00214 -0.57264,2.86573 -0.23976,3.1986 0.40764,0.40764 1.7933,-0.29605 1.74872,-0.88806 -0.0123,-0.16205 0.1279,-0.61919 0.31149,-1.01605 0.18355,-0.39687 0.45559,-0.98514 0.604,-1.30785 0.3576,-0.77766 1.94804,-2.25058 2.47858,-2.29507 0.23156,-0.0193 0.87103,-0.0403 1.42106,-0.0457 0.97553,-0.0109 1.00338,-0.0249 1.12362,-0.6019 0.34979,-1.67832 -3.01643,-1.61255 -4.832,0.0935 -0.45145,0.42445 -0.73591,0.37497 -0.35088,-0.0619 0.41547,-0.47066 0.5905,-2.60681 0.26087,-3.18596 -0.19895,-0.34952 -0.43354,-0.51411 -0.64971,-0.52033 z m 93.14908,0.0239 c -0.0739,0.001 -0.14538,0.0158 -0.21235,0.0457 -0.32653,0.14569 -0.4055,0.35512 -0.44509,1.17707 -0.0525,1.09081 -0.68658,3.66134 -1.59191,6.45557 -0.56358,1.73941 -0.5695,1.7936 -0.23978,2.15795 0.95263,1.05265 1.66162,-0.0429 2.75351,-4.25614 0.54871,-2.11703 1.76922,-3.62352 2.73945,-3.38001 0.6566,0.16482 0.66547,0.38561 0.0977,2.6853 -0.5838,2.36766 -0.67299,3.69587 -0.27071,4.02973 0.82225,0.6824 2.13993,-0.50479 1.64605,-1.48293 -0.16654,-0.32974 -0.19234,-0.64839 -0.083,-1.00972 0.0885,-0.29043 0.24752,-0.81728 0.35298,-1.17074 1.0536,-3.53219 -0.44311,-5.73455 -2.80624,-4.13098 -0.83453,0.56639 -0.99789,0.57362 -0.89652,0.0443 0.10232,-0.53561 -0.52658,-1.17408 -1.04416,-1.16512 z m -98.87127,0.45423 c -1.17025,0.0901 -2.95529,1.36455 -4.15135,3.34416 -1.9187,3.17559 -0.43454,6.1062 2.38084,4.70194 2.42311,-1.20883 -2.03827,5.66398 -5.01764,7.72966 -1.27997,0.70634 -1.92083,0.95069 -2.86251,1.12714 -0.57702,0.17301 -0.98717,0.25767 -1.30081,0.26719 -0.63576,6.9e-4 -1.03823,-0.2297 -1.28254,-1.05401 -0.10355,-0.1347 -0.1249,-0.26093 -0.0963,-0.35157 -0.21115,-0.40374 -0.35546,-0.37639 -0.58853,0.13498 -0.0323,0.0708 -0.0931,0.12668 -0.18986,0.17648 -0.0269,0.23045 -0.0487,0.46129 -0.0682,0.6926 -0.008,0.0943 -0.0145,0.18885 -0.0197,0.28336 0.15894,0.0604 0.21743,0.1324 0.24049,0.22995 0.38234,1.6187 4.03227,1.59194 6.83385,-0.0499 2.21268,-1.69607 1.32216,-1.02424 2.33656,-1.87038 2.73943,-2.27716 6.66875,-11.93205 5.35444,-13.15654 -0.24615,-0.2293 -0.38532,-0.5857 -0.38532,-0.98441 0,-0.90179 -0.48126,-1.27469 -1.18339,-1.22065 z m 22.39305,0.57448 c -0.51933,0 -1.09652,1.72593 -0.70737,2.11506 0.28425,0.28418 0.27677,0.36923 -0.11321,1.2523 -2.49266,5.64474 -3.0087,8.01725 -1.74309,8.01725 0.29558,0 1.36762,-1.22035 1.36762,-1.55677 0,-0.1422 0.15727,-0.53157 0.34946,-0.86556 0.19218,-0.33399 0.40827,-0.89673 0.48025,-1.25019 0.072,-0.35347 0.19252,-0.72524 0.2679,-0.8262 0.0754,-0.10096 0.19165,-0.41065 0.25805,-0.68837 0.0756,-0.31676 0.24224,-0.50556 0.4472,-0.50556 0.18214,0 0.79991,-0.57419 1.39363,-1.29591 0.58647,-0.71287 1.09499,-1.26758 1.12996,-1.2326 0.15785,0.15784 -1.00912,5.57376 -1.43301,6.65034 -0.25223,0.64072 -0.22245,1.34179 0.0746,1.69879 0.60591,0.73008 1.1435,0.0323 2.78586,-3.61698 0.71752,-1.59405 0.94079,-2.01942 1.06175,-2.01942 0.0671,0 0.17061,-0.19368 0.22993,-0.43032 0.0595,-0.23667 0.29816,-0.62958 0.53017,-0.87262 0.23201,-0.24304 0.6522,-0.75285 0.93377,-1.13346 0.28156,-0.3806 0.59491,-0.64098 0.69683,-0.57798 0.10191,0.063 0.38542,-0.0733 0.63001,-0.30307 0.74755,-0.70228 0.67639,-0.0572 -0.29602,2.67478 -1.56035,4.38333 -1.70388,5.59984 -0.66096,5.59984 0.58191,0 0.8093,-0.30526 0.92182,-1.23895 0.0512,-0.42426 0.20957,-1.04184 0.35228,-1.37254 0.38699,-0.89675 1.5556,-4.69906 1.74872,-5.68914 0.30572,-1.56745 -0.0699,-2.16497 -1.36128,-2.16497 -0.50762,0 -2.26836,1.68116 -3.79629,3.6254 -0.98408,1.25248 -1.1485,1.37172 -0.98369,0.7151 1.01844,-4.05759 -0.006,-5.15082 -2.43219,-2.59601 -0.71976,0.75772 -1.30824,1.3157 -1.30714,1.23964 10e-4,-0.0761 0.12532,-0.5442 0.27564,-1.03994 0.44937,-1.48133 0.0538,-2.31194 -1.10113,-2.31194 z m 26.16894,0.01 v 6.9e-4 c -0.37302,0.0282 -0.68435,0.26634 -1.28185,1.4738 -1.28714,2.00487 0.12913,0.54296 1.05754,1.4323 0,-0.59406 0.55132,-1.04839 1.06104,-1.38238 0.51741,-0.33903 0.5626,-0.72814 0.13853,-1.19675 -0.1779,-0.19656 -0.36775,-0.30134 -0.56886,-0.31361 -0.15077,-0.01 -0.28211,-0.0231 -0.4064,-0.014 z m 89.10387,0.19267 c -0.24455,0.001 -0.43999,0.11416 -0.51117,0.33821 -0.10546,0.33235 -0.14289,0.33682 -0.61737,0.064 -0.54822,-0.31463 -0.38554,-0.36136 -2.18538,0.63001 -1.93743,1.06718 -3.09027,4.0069 -2.32319,5.924 0.56481,1.41162 2.10925,1.50858 3.14235,0.19759 0.394,-0.5 0.27072,0.11687 -0.3157,1.58136 -0.30297,0.75663 -0.55197,1.55584 -0.55197,1.77544 -5.3e-4,0.21958 -0.14513,0.6141 -0.32134,0.87823 -1.41768,2.12524 -1.60172,2.32693 -2.93071,3.19017 -0.21109,0.13711 -0.68381,0.24784 -1.27269,0.33539 -0.19856,0.13498 -0.40626,0.25442 -0.62018,0.36423 -0.2216,0.0995 -0.44454,0.19579 -0.66517,0.29743 -0.003,0.001 -0.006,0.003 -0.01,0.004 0.30187,0.0528 0.072,0.16226 -0.64689,0.34736 -1.68596,0.43385 -2.60898,0.45058 -3.09103,0.0577 -0.11974,-0.0978 -0.20172,-0.16775 -0.2236,-0.22149 -0.12967,-0.12681 -0.23239,-0.27289 -0.2714,-0.45493 -0.0268,-0.13853 -0.0408,-0.27825 -0.0548,-0.41837 -0.0658,-0.0232 -0.1279,-0.0469 -0.17085,-0.0739 -0.29984,-0.18766 -0.44493,-0.18804 -0.75941,0.0109 -0.0151,0.01 -0.19617,0.0198 -0.2679,0.0295 0.0152,0.16274 0.0376,0.32524 0.0626,0.48658 0.044,0.28114 0.0946,0.56168 0.1807,0.83323 10e-4,0.007 0.004,0.0123 0.007,0.0183 0.12722,0.0446 0.22404,0.0908 0.25172,0.13993 0.50698,0.90203 1.14618,1.27621 2.18186,1.27621 1.07479,0 5.20145,-1.03607 6.25658,-1.57083 0.17682,-0.0895 0.34427,-0.15704 0.58151,-0.21446 0.16681,-0.1434 0.33118,-0.29091 0.51399,-0.41345 0.19374,-0.13158 0.38904,-0.26023 0.57588,-0.4015 0.0411,-0.0329 0.0815,-0.0664 0.12164,-0.10055 -0.0385,-0.0744 0.0657,-0.18991 0.23485,-0.37406 0.41379,-0.45076 1.51263,-2.1984 1.53004,-2.43289 0.004,-0.0505 0.26095,-0.75236 0.57166,-1.56027 0.74091,-1.9265 1.05871,-2.92348 1.63903,-5.1414 0.26425,-1.00988 0.59843,-2.16674 0.74252,-2.57069 0.46978,-1.31687 0.47779,-2.11824 0.0225,-2.49758 -0.26687,-0.22298 -0.56054,-0.33367 -0.8051,-0.33258 z m -144.36612,0.007 c -0.25719,0.0123 -1.11378,0.42962 -1.11378,0.57377 0,0.10667 -0.15145,0.0574 -0.3361,-0.10967 -0.54118,-0.48968 -1.21705,-0.36655 -2.11085,0.38462 -2.59073,2.17761 -3.92416,6.87539 -2.27889,8.0278 1.40573,0.98463 4.40965,-1.13169 6.11737,-4.30957 0.43648,-0.81222 0.48648,-3.16918 0.0837,-3.96574 -0.14813,-0.293 -0.27957,-0.55437 -0.29181,-0.58009 -0.008,-0.0169 -0.0329,-0.0229 -0.0697,-0.0211 z m 125.96342,0.0668 c -0.92674,0 -0.54199,1.59338 -1.54238,3.53699 -0.66357,1.28927 -0.79609,2.72752 -1.55067,2.09516 -0.17036,-0.0746 -0.2976,-1.09685 -0.17302,-3.33568 0.0663,-1.19622 -0.13226,-2.20366 -0.43455,-2.20366 -1.0526,0 -1.76538,6.65933 -0.82408,7.69944 2.36309,0.82677 2.25944,-0.24475 2.68889,-1.12297 0.0123,-0.72568 0.43089,-0.69596 0.59052,-2.35335 0.17882,0 0.21858,0.30078 0.16102,1.20449 -0.10232,1.60663 0.42762,2.3432 1.2305,1.71145 0.4183,-0.32905 0.47995,-0.51537 0.4922,-1.50754 0.008,-0.62269 0.0812,-2.05357 0.16313,-3.17891 0.14887,-2.04607 0.14848,-2.04586 -0.32415,-2.35553 -0.17991,-0.11784 -0.33083,-0.18941 -0.47743,-0.18986 z m -54.85089,0.003 v 6.9e-4 6.9e-4 6.9e-4 c -1.39712,0.0648 -3.1353,1.68298 -4.08527,3.99808 -1.31487,3.20392 -0.25118,5.70746 1.79582,4.2266 0.43856,-0.31725 0.43894,-0.3172 -0.0457,0.59274 -0.26641,0.50043 -0.48447,1.04053 -0.48447,1.20028 -0.69732,2.06715 -2.06004,3.90612 -3.47001,5.34108 -1.42076,1.70647 -4.46791,4.26967 -6.1694,2.72328 -0.58756,-0.61329 -0.91655,-0.69262 -1.08143,-0.26297 -0.26723,0.69621 0.66736,1.70574 2.04686,2.21209 1.04172,0.38236 2.79968,-0.11879 3.62893,-1.03503 0.18049,-0.19944 0.42458,-0.36283 0.54282,-0.36283 0.11825,0 0.87,-0.6519 1.66996,-1.44917 1.76177,-1.5284 3.48055,-4.12069 4.11763,-5.87619 0,-0.1064 0.24758,-0.73495 0.55055,-1.39644 0.30298,-0.66149 0.55128,-1.24884 0.55128,-1.30504 0,-0.0562 0.62596,-1.39696 1.39081,-2.97922 0.76485,-1.58231 1.46256,-3.04163 1.55114,-3.2436 0.68307,-1.55748 -0.40098,-2.24523 -1.45481,-0.92254 -0.4443,0.55765 -0.88094,1.01395 -0.97034,1.01395 -0.22483,0 0.10301,-0.57329 0.56814,-0.99426 0.37416,-0.3386 0.52266,-1.10556 0.2461,-1.26917 -0.27224,-0.16105 -0.5762,-0.22869 -0.89861,-0.21375 z m -150.42511,0.0123 c 0.66191,-0.0245 1.34089,0.1241 1.40769,0.46829 0.0996,0.51278 -1.22228,1.92779 -2.35483,2.52148 -0.60489,0.31708 -1.21794,0.57658 -1.36199,0.57658 -0.32391,0 -0.31174,-0.17781 -0.30516,-0.44509 0.009,-0.37146 1.30714,-2.23919 1.30714,-2.55312 0,-0.34672 0.64526,-0.54373 1.30715,-0.56814 z m 103.59427,0.11743 c -0.28229,0.037 -0.52557,0.15446 -0.54775,0.32766 -0.15184,1.18644 -0.30997,1.66876 -0.72635,2.21631 -0.47872,0.62946 -0.47864,0.62947 -0.37196,-0.21727 0.26314,-2.08944 -2.63273,-2.15274 -3.67533,-0.0801 -0.10409,0.20704 -0.4126,0.796 -0.68557,1.30926 -0.90059,1.69324 -0.8106,4.07191 0.17085,4.51911 1.01782,0.46374 3.32575,-0.95238 4.21255,-2.58477 0.36073,-0.66394 0.36081,-0.66369 0.48939,0.57096 0.19008,1.82446 0.32542,2.29685 0.83393,2.90118 1.06588,1.26674 2.03755,0.33569 1.25792,-1.2052 -0.61955,-1.22452 -0.74313,-4.44014 -0.21796,-5.66171 0.37551,-0.87398 0.39102,-1.65085 0.0408,-1.9421 -0.17717,-0.14703 -0.49819,-0.19033 -0.78049,-0.15328 z m 92.37561,0.14414 c 0.44852,0 0.36694,0.84575 -0.11388,1.18269 -0.20169,0.14126 0.55464,0.62648 0.34804,0.67138 -0.79834,1.90164 -0.72895,1.67024 -2.21771,3.33442 -0.5884,0.64533 -0.88118,0.34011 -0.7805,-0.81354 0.15605,-3.19943 0.86335,-2.86216 1.17492,-3.35324 0.0853,-0.44647 0.97979,-1.02167 1.5891,-1.02167 z m 33.83489,0.006 c 0,-0.17594 0.30787,0.0176 0.25664,0.13361 -0.0336,0.0762 -0.22375,0.55095 -0.42189,1.05542 -0.19817,0.50448 -0.46619,1.0267 -0.59627,1.16019 -0.13007,0.13348 -0.23695,0.34009 -0.23695,0.45916 0,0.11905 -0.28475,0.44299 -0.63283,0.72072 -0.87471,0.69793 -1.23537,0.36952 -0.56603,-0.51541 0.1482,-0.19604 0.27221,-0.46692 0.27493,-0.6019 0.006,-0.23123 0.94369,-1.67894 1.41613,-2.18536 0.11552,-0.12382 0.50627,-0.0505 0.50627,-0.22642 z m -197.55225,0.0415 c -0.99564,0.0403 -2.43353,1.01738 -3.39267,2.72188 -1.87233,3.32732 -1.65356,6.10731 0.51892,6.58564 0.88174,0.19414 2.4391,-1.28277 3.18314,-3.0193 0.12453,-0.29063 0.18943,-0.15655 0.31149,0.64268 0.20471,1.34034 1.02852,2.14751 1.79021,1.75364 1.17805,-0.60921 1.55119,-1.88071 0.53157,-1.812 -0.69825,0.0471 -0.76611,-0.34459 -0.40571,-2.35906 0.46655,-2.60774 0.4469,-3.06728 -0.15399,-3.51853 -0.65924,-0.4951 -0.84992,-0.29312 -1.04839,1.11097 -0.18516,1.30994 -0.59749,2.18405 -1.10675,2.34569 -0.20308,0.0645 -0.36915,0.24759 -0.36915,0.40711 0,0.66792 -2.01656,2.62068 -2.70851,2.62204 -0.48341,0.001 -0.14113,-2.88135 0.4915,-3.58042 0.14988,-0.38095 0.57522,-1.46698 1.19675,-1.7438 0.14063,0 0.37154,-0.044 0.51329,-0.0985 0.15648,-0.06 0.34146,0.0841 0.47041,0.36705 0.3917,0.85973 1.07064,0.47309 1.26425,-0.72003 0.19483,-1.20054 -0.31197,-1.73643 -1.08636,-1.70512 z m 145.55796,0.10899 c 0.48829,-0.0848 0.60555,1.0729 0.19266,1.90059 -0.15893,0.31845 -0.2409,0.73044 -0.18212,0.9155 0.0708,0.22315 -0.10953,0.58964 -0.5365,1.08847 -0.35409,0.41366 -0.77278,1.0238 -0.93025,1.35565 -0.15748,0.33185 -0.41777,0.6536 -0.57799,0.71511 -0.54006,0.20724 -0.62791,0.11429 -0.62791,-0.65955 0,-1.66683 1.74788,-5.15714 2.66211,-5.31577 z m -35.36888,0.008 c -0.4765,-0.0155 -1.09413,0.23573 -1.81973,0.78963 -0.82026,0.62611 -0.81988,0.62616 -0.81988,0.0661 0,-0.68966 -1.27973,-0.98407 -1.48855,-0.34242 -0.28374,0.87178 -1.62493,4.26498 -1.92521,4.87069 -0.4821,0.97255 -0.5156,1.95562 -0.0788,2.27536 0.68305,0.49946 1.13955,0.14373 2.0131,-1.56941 2.00124,-3.92458 4.35838,-5.36702 2.93352,-1.79513 -0.23301,0.58415 -0.48002,1.45178 -0.54915,1.92803 -0.0691,0.47622 -0.19772,1.00495 -0.28548,1.17424 -0.21392,0.41317 -0.0123,0.88074 0.46196,1.0723 0.85936,0.34723 1.0017,0.15482 1.56662,-2.11506 0.20106,-0.80791 0.5366,-2.0473 0.74533,-2.75422 0.66128,-2.23975 0.29452,-3.56599 -0.75378,-3.6001 z m 71.63356,0.21305 c -0.074,-0.008 -0.14984,-0.006 -0.22641,0.007 -0.20424,0.0334 -0.41195,0.14249 -0.59417,0.34384 -0.2987,0.33011 -0.37043,0.33783 -0.84587,0.0921 -0.28572,-0.14779 -0.62685,-0.2686 -0.7587,-0.2686 -0.37229,0 -2.3492,1.31178 -2.3492,1.55886 0,0.12111 -0.17199,0.37616 -0.38182,0.56604 -1.51754,1.37338 -1.70637,5.9314 -0.27,6.51323 0.86438,0.35013 1.70696,-0.32471 2.58194,-2.06725 0.26117,-0.51996 0.67721,-1.13268 0.92464,-1.36198 0.24743,-0.22932 0.45001,-0.62267 0.45001,-0.87401 0,-0.5624 0.33108,-0.808 0.47603,-0.35299 0.73403,2.30398 2.02013,3.19023 3.13321,2.15866 0.59971,-0.55581 0.43546,-1.05333 -0.3804,-1.15035 -0.95196,-0.11321 -1.51448,-2.24397 -1.02659,-3.88838 0.20515,-0.69116 -0.21425,-1.22093 -0.73267,-1.2755 z m -89.45405,0.0675 c -0.0821,-0.0109 -0.16736,-0.008 -0.25454,0.01 -0.23247,0.046 -0.47968,0.19546 -0.72213,0.46337 -0.20739,0.22917 -0.84727,0.90611 -0.84729,0.19828 -0.40403,-0.74099 -1.57051,-0.7995 -1.632,1.27059 -0.014,0.47136 -0.55488,2.12798 -1.19886,3.579 -0.96658,2.17792 -1.06222,2.60864 -0.69119,3.11845 0.74543,1.02428 1.8899,-0.34026 2.61289,-3.11634 0.3228,-1.23949 1.71379,-3.59213 1.97161,-3.33431 0.12042,0.12042 -0.30892,2.66915 -0.52103,3.09313 -0.31517,0.62998 -0.64436,2.65735 -0.49641,3.05728 0.47181,1.27542 1.5212,0.38304 2.29224,-1.94983 0.32233,-0.97524 0.68178,-1.80516 0.79948,-1.84434 0.11769,-0.0392 0.39439,-0.22836 0.61455,-0.42049 0.22015,-0.19212 0.82196,-0.7207 1.33738,-1.17424 1.33902,-1.17825 1.53517,-0.7127 0.58079,1.37886 -0.78856,1.72824 -1.08661,3.8187 -0.60189,4.22098 0.80893,0.67137 2.11366,-1.02868 2.11366,-2.75422 0,-0.75395 0.36624,-2.40812 0.56884,-2.56859 0.3324,-0.26324 0.35999,-2.13525 0.0366,-2.416 -0.92735,-0.80324 -2.10838,-0.46164 -3.74636,1.08354 -1.4766,1.39305 -1.39803,1.38925 -1.30292,0.0731 0.0825,-1.14147 -0.33935,-1.89039 -0.91338,-1.96741 z m 72.28536,0.47321 c 0.0505,0 0.0921,0.0416 0.0921,0.0921 0,0.0505 -0.0416,0.0921 -0.0921,0.0921 -0.0505,0 -0.0921,-0.0416 -0.0921,-0.0921 0,-0.0505 0.0416,-0.0921 0.0921,-0.0921 z m -111.5377,0.0415 c 0.21915,-0.0347 0.3579,0.0797 0.3579,0.39377 0,0.35396 0.0833,0.69482 0.18422,0.75727 0.64563,0.39903 -0.49714,2.57352 -1.60106,3.04673 -1.59413,0.68334 -2.08441,0.27954 -1.50965,-1.24456 0.53003,-1.40548 1.91114,-2.8493 2.56859,-2.95321 z m -8.18812,0.91198 c 0.0762,0.034 0.0629,0.17714 0.0429,0.46829 -0.0292,0.42655 0.0446,0.51412 0.47814,0.56392 0.87463,0.10041 0.59686,0.58565 -1.78318,3.10861 -0.59539,0.63119 -1.19339,1.14753 -1.32894,1.14753 -1.06359,0 0.72314,-4.53003 2.01099,-5.0985 0.3378,-0.14911 0.50389,-0.22392 0.58009,-0.18985 z m 144.7866,0.0204 c 0.43951,0.0358 0.61215,0.50748 0.18633,0.77065 -0.10096,0.0625 -0.18351,0.24517 -0.18351,0.40641 0,0.16125 -0.20669,0.56411 -0.45916,0.89512 -0.25247,0.33101 -0.45916,0.64088 -0.45916,0.68837 0,0.0475 -0.26275,0.38355 -0.58431,0.74674 -1.04741,1.18309 -1.54247,-0.42816 -0.57095,-1.85841 0.1909,-0.28108 0.44472,-0.73832 0.56391,-1.01605 0.1192,-0.2777 0.3322,-0.50485 0.47323,-0.50485 0.14102,0 0.51413,-0.0514 0.82971,-0.11457 0.0727,-0.0145 0.14111,-0.0166 0.20391,-0.0136 z m -72.61726,0.12723 v 6.8e-4 c 0.0192,0 0.0345,0.01 0.0492,0.0204 0.003,-0.001 0.007,-0.003 0.0109,-0.003 0.0109,-8e-5 0.0231,0.004 0.0359,0.0162 0.0652,0.0528 0.11307,0.106 0.16805,0.1575 0.16357,0.16848 0.27518,0.37228 0.38814,0.56673 0.007,0.0147 0.0143,0.0291 0.0218,0.0436 10e-4,-2.4e-4 0.006,-0.003 0.007,-0.003 0.17047,-0.0238 0.0931,0.18893 -0.29391,0.57588 -0.2632,0.26319 -0.47883,0.59565 -0.47883,0.739 0,0.14334 -0.1647,0.34914 -0.36635,0.45704 -0.20164,0.1079 -0.53111,0.51826 -0.73197,0.91199 -0.61794,1.21114 -1.05872,1.16149 -0.71579,-0.0802 0.0433,-2.13438 1.22994,-2.94948 1.81411,-3.3111 0,-0.0505 0.0416,-0.0921 0.0921,-0.0921 z m 62.56933,0.10408 c 0.7223,0.0446 0.40503,0.84708 -1.18551,3.37229 -1.29552,2.05691 -1.95742,1.91823 -1.25652,-0.26298 0.85497,-2.65957 1.03651,-2.92984 2.06935,-3.0847 0.14493,-0.0218 0.26948,-0.031 0.37268,-0.0246 z m -170.80647,0.0801 v 6.9e-4 c -0.51129,0 -0.54392,0.12423 -0.63073,2.41249 -0.0733,1.93389 -0.52912,4.34162 -0.99072,5.2328 -0.0974,0.18811 -0.37079,0.78468 -0.60683,1.32613 -0.51265,1.17607 -1.65545,2.24657 -2.76756,2.59179 -0.43584,0.13525 -0.9703,0.35357 -1.18691,0.48447 -0.64273,0.38842 -0.89922,0.61922 -2.3035,0.76433 -0.0144,0.0151 -0.0303,0.0299 -0.0478,0.045 -0.61739,0.45018 -1.39161,0.95183 -1.99904,1.0266 -0.0207,0.006 -0.0412,0.0123 -0.0619,0.0176 -0.26141,0.0724 -0.51996,0.15443 -0.77908,0.23483 -0.003,0.039 -0.0148,0.0398 -0.0148,0.0872 0,0.56628 0.63794,0.6535 1.95193,0.2672 0.69392,-0.20401 1.52031,-0.43844 1.83662,-0.52103 0.31627,-0.0826 0.68804,-0.22041 0.82619,-0.30586 0.0521,-0.0323 0.30416,-0.0602 0.64689,-0.0859 0.21957,-0.10477 0.44915,-0.1809 0.68698,-0.23554 0.41217,-0.10777 0.82708,-0.20704 1.24034,-0.31079 0.21136,-0.13471 0.52448,-0.31232 0.94995,-0.51752 2.66462,-1.28514 5.80666,-10.27956 3.98543,-11.40923 -0.14853,-0.0921 -0.21341,-0.22395 -0.14415,-0.29321 0.21394,-0.21394 -0.22164,-0.81213 -0.59134,-0.81213 z m 59.57603,0.12232 v 6.9e-4 c 0.0447,-0.006 0.085,-0.003 0.12029,0.006 0.23487,0.0558 0.24423,0.39056 -0.13567,0.81142 -0.31839,0.35182 -0.20993,0.7151 0.21306,0.7151 0.48487,0 0.27372,0.38977 -0.75377,1.39293 -1.27922,1.24893 -1.60819,1.29035 -1.49348,0.18915 0.0952,-0.91414 0.85427,-2.32571 1.54129,-2.86602 0.19953,-0.15695 0.3741,-0.23374 0.50837,-0.24821 z m 32.86357,2.1657 c -0.17429,0.01 -0.26859,0.15939 -0.26859,0.43876 0,0.15195 -0.137,0.42676 -0.30378,0.61104 -0.81659,0.90233 -1.37333,3.09396 -0.97526,3.83775 0.33444,0.62491 1.46255,-0.0389 1.46255,-0.86064 0,-0.25002 0.16506,-0.79628 0.36703,-1.21433 0.40468,-0.83759 0.48138,-1.60951 0.16032,-1.60951 -0.13022,0 -0.16557,-0.19776 -0.0992,-0.53439 0.0721,-0.36031 0.0256,-0.56538 -0.14272,-0.63001 -0.0754,-0.0289 -0.1423,-0.0416 -0.2004,-0.0387 z"
    style="fill:#000000;stroke:none;stroke-width:0.114436;stroke-dasharray:none;stroke-opacity:1"
    id="path1247" />
  </g>
</svg>